<svg xmlns="http://www.w3.org/2000/svg" xmlns:xlink="http://www.w3.org/1999/xlink" aria-hidden="true" role="img" class="iconify iconify--logos" width="31.88" height="32" preserveAspectRatio="xMidYMid meet" viewBox="0 0 256 257"><defs><linearGradient id="IconifyId1813088fe1fbc01" x1="20.825%" x2="87.692%" y1="9.545%" y2="88.307%"><stop offset="0%" stop-color="#41D1FF"></stop><stop offset="100%" stop-color="#BD34FE"></stop></linearGradient><linearGradient id="IconifyId1813088fe1fbc02" x1="0.777%" x2="107.79%" y1="10.235%" y2="87.304%"><stop offset="0%" stop-color="#FFEA83"></stop><stop offset="8.333%" stop-color="#FFDD35"></stop><stop offset="100%" stop-color="#FFA800"></stop></linearGradient></defs><path fill="url(#IconifyId1813088fe1fbc01)" d="M255.153 125.622L134.752 254.389a12.803 12.803 0 0 1-22.565-5.691L90.394 157.35L48.454 182.095a12.8 12.8 0 0 1-18.258-14.79l29.302-136.49a12.8 12.8 0 0 1 22.592-5.652l173.063 100.459a12.8 12.8 0 0 1 0 22.127Z"></path><path fill="url(#IconifyId1813088fe1fbc02)" d="M150.574 19.012L131.884 7.987a12.8 12.8 0 0 0-15.39.393L5.608 103.402a12.8 12.8 0 0 0 0 20.196l110.886 95.022a12.8 12.8 0 0 0 15.39.393l18.69-11.025a12.8 12.8 0 0 0 2.547-19.586L93.867 133.14l59.254-94.541a12.8 12.8 0 0 0-2.547-19.587Z"></path></svg>
